<svg xmlns="http://www.w3.org/2000/svg" width="24" height="24" fill="none"><style>.arrow,.perimeter{fill:#072146}@media (prefers-color-scheme:dark){.arrow,.perimeter{fill:#e6eaeb}}</style><path fill-rule="evenodd" d="M9 2a1 1 0 0 1 1-1h4a1 1 0 0 1 1 1v1h5a1 1 0 0 1 1 1v5h1a1 1 0 0 1 1 1v4a1 1 0 0 1-1 1h-1v5a1 1 0 0 1-1 1h-5v1a1 1 0 0 1-1 1h-4a1 1 0 0 1-1-1v-1H4a1 1 0 0 1-1-1v-5H2a1 1 0 0 1-1-1v-4a1 1 0 0 1 1-1h1V4a1 1 0 0 1 1-1h5V2Zm10 3H5v14h14V5Z" class="perimeter" clip-rule="evenodd"/><path d="m14.207 8.793 2.5 2.5a1 1 0 0 1 0 1.414l-2.5 2.5-1.414-1.414L14.585 12l-1.792-1.793 1.414-1.414ZM9.793 8.793l-2.5 2.5a1 1 0 0 0 0 1.414l2.5 2.5 1.414-1.414L9.415 12l1.792-1.793-1.414-1.414Z" class="arrow"/></svg>
